<svg version="1.1" xmlns="http://www.w3.org/2000/svg"  x="0px" y="0px" viewBox="0 0 1000 1000" enable-background="new 0 0 1000 1000" xml:space="preserve">
<metadata> Svg Vector Icons : http://www.onlinewebfonts.com/icon </metadata>
<g><path d="M965.9,965.9c-32.8,32.8-86.5,32.1-120.1-1.5L501.5,620L165.6,955.9c-32.8,32.7-86.5,32.1-120.1-1.5c-33.5-33.5-34.2-87.3-1.5-120.1l335.9-335.9L35.6,154.1C2.1,120.6,1.4,66.8,34.1,34.1C66.8,1.3,120.6,2,154.1,35.6l344.3,344.3L834.4,44.1c32.8-32.8,86.5-32.1,120.1,1.5c33.5,33.5,34.2,87.3,1.5,120.1L620,501.5l344.3,344.3C997.9,879.4,998.6,933.1,965.9,965.9z"/></g>
</svg>
